<svg xmlns="http://www.w3.org/2000/svg" version="1.1" xmlns:xlink="http://www.w3.org/1999/xlink" xmlns:svgjs="http://svgjs.dev/svgjs" width="1000" height="623" viewBox="0 0 1000 623"><g transform="matrix(1,0,0,1,-0.6060606060606233,0.25474898785421374)"><svg viewBox="0 0 396 247" data-background-color="#ececec" preserveAspectRatio="xMidYMid meet" height="623" width="1000" xmlns="http://www.w3.org/2000/svg" xmlns:xlink="http://www.w3.org/1999/xlink"><g id="tight-bounds" transform="matrix(1,0,0,1,0.2400000000000091,-0.09999999999999432)"><svg viewBox="0 0 395.52 247.2" height="247.2" width="395.52"><g><svg></svg></g><g><svg viewBox="0 0 395.52 247.2" height="247.2" width="395.52"><g><g><path d="M98.908 74.138c0-10.215 1.954-19.818 5.86-28.808 3.907-8.944 9.203-16.781 15.887-23.513 6.731-6.731 14.592-12.051 23.583-15.957 8.944-3.907 18.523-5.861 28.738-5.861h113.469v49.497h-113.469c-3.436 0-6.637 0.635-9.603 1.906-3.013 1.224-5.625 2.966-7.837 5.226-2.259 2.259-4.025 4.872-5.296 7.837-1.271 3.013-1.906 6.237-1.906 9.674 0 3.436 0.635 6.684 1.906 9.744 0.445 1.055 0.951 2.064 1.517 3.026l-51.78 0c-0.713-4.149-1.07-8.406-1.069-12.77zM296.612 173.062c0 10.215-1.93 19.818-5.79 28.808-3.86 8.944-9.132 16.781-15.816 23.513-6.731 6.731-14.616 12.051-23.654 15.957-9.038 3.907-18.664 5.861-28.879 5.861h-109.797v-49.497h109.797c3.436 0 6.661-0.635 9.674-1.906 2.966-1.224 5.578-2.966 7.837-5.226 2.259-2.259 4.001-4.872 5.225-7.837 1.271-3.013 1.906-6.237 1.907-9.674 0-3.436-0.635-6.661-1.907-9.673-0.445-1.079-0.959-2.112-1.542-3.097h51.888c0.705 4.149 1.057 8.406 1.057 12.77z" fill="#ffffff" fill-rule="nonzero" stroke="none" stroke-width="1" stroke-linecap="butt" stroke-linejoin="miter" stroke-miterlimit="10" stroke-dasharray="" stroke-dashoffset="0" font-family="none" font-weight="none" font-size="none" text-anchor="none" style="mix-blend-mode: normal" data-fill-palette-color="tertiary"></path></g></g><g transform="matrix(1,0,0,1,0,95.1981046831956)"><svg viewBox="0 0 395.52 56.80379063360881" height="56.80379063360881" width="395.52"><g><svg viewBox="0 0 395.52 56.80379063360881" height="56.80379063360881" width="395.52"><g><svg viewBox="0 0 395.52000000000004 56.80379063360882" height="56.80379063360881" width="395.52"><g><svg viewBox="0 0 395.52000000000004 56.80379063360882" height="56.80379063360882" width="395.52000000000004"><g id="textblocktransform"><svg viewBox="0 0 395.52000000000004 56.80379063360882" height="56.80379063360882" width="395.52000000000004" id="textblock"><g><svg viewBox="0 0 395.52000000000004 56.80379063360882" height="56.80379063360882" width="395.52000000000004"><g transform="matrix(1,0,0,1,0,0)"><svg width="395.52000000000004" viewBox="1.2 -37.7 265.84000000000003 38.190000000000005" height="56.80379063360882" data-palette-color="#ef5567"><path d="M1.2-24.51L1.2-24.51Q1.2-26.68 2.03-28.59 2.86-30.49 4.28-31.92 5.71-33.35 7.62-34.18 9.52-35.01 11.69-35.01L11.69-35.01 27.76-35.01 27.76-28 11.69-28Q10.96-28 10.33-27.73 9.69-27.47 9.22-26.99 8.74-26.51 8.47-25.88 8.2-25.24 8.2-24.51L8.2-24.51Q8.2-23.78 8.47-23.13 8.74-22.49 9.22-22.01 9.69-21.53 10.33-21.26 10.96-21 11.69-21L11.69-21 18.7-21Q20.87-21 22.79-20.18 24.71-19.36 26.14-17.93 27.56-16.5 28.38-14.59 29.2-12.67 29.2-10.5L29.2-10.5Q29.2-8.33 28.38-6.42 27.56-4.52 26.14-3.09 24.71-1.66 22.79-0.83 20.87 0 18.7 0L18.7 0 3.15 0 3.15-7.01 18.7-7.01Q19.43-7.01 20.07-7.28 20.7-7.54 21.18-8.02 21.66-8.5 21.92-9.13 22.19-9.77 22.19-10.5L22.19-10.5Q22.19-11.23 21.92-11.87 21.66-12.5 21.18-12.98 20.7-13.45 20.07-13.72 19.43-13.99 18.7-13.99L18.7-13.99 11.69-13.99Q9.52-13.99 7.62-14.82 5.71-15.65 4.28-17.08 2.86-18.51 2.03-20.42 1.2-22.34 1.2-24.51ZM66.09-16.6L66.09 0 59.45 0 59.45-16.6Q59.45-17.29 59.19-17.9 58.93-18.51 58.47-18.97 58.01-19.43 57.39-19.69 56.78-19.95 56.1-19.95L56.1-19.95Q55.42-19.95 54.82-19.69 54.22-19.43 53.77-18.97 53.32-18.51 53.06-17.9 52.81-17.29 52.81-16.6L52.81-16.6 52.81 0 46.14 0 46.14-16.6Q46.14-17.29 45.88-17.9 45.63-18.51 45.16-18.97 44.7-19.43 44.09-19.69 43.48-19.95 42.8-19.95L42.8-19.95Q42.11-19.95 41.51-19.69 40.92-19.43 40.46-18.97 40.01-18.51 39.76-17.9 39.5-17.29 39.5-16.6L39.5-16.6 39.5 0 32.83 0 32.83-26.15 34.45-26.15 36.25-24.15Q37.64-25.32 39.32-25.96 40.99-26.61 42.8-26.61L42.8-26.61Q44.63-26.61 46.37-25.93 48.12-25.24 49.44-23.56L49.44-23.56Q50.05-24.39 50.83-24.98 51.61-25.56 52.48-25.93 53.34-26.29 54.27-26.45 55.2-26.61 56.1-26.61L56.1-26.61Q58.18-26.61 60-25.83 61.81-25.05 63.17-23.69 64.52-22.34 65.31-20.51 66.09-18.68 66.09-16.6L66.09-16.6ZM96.21-13.31L96.21-13.31Q96.21-10.38 95.16-7.85 94.11-5.32 92.3-3.48 90.5-1.64 88.07-0.57 85.64 0.49 82.86 0.49L82.86 0.49Q80.1 0.49 77.67-0.57 75.24-1.64 73.42-3.48 71.6-5.32 70.55-7.85 69.5-10.38 69.5-13.31L69.5-13.31Q69.5-16.28 70.55-18.82 71.6-21.36 73.42-23.21 75.24-25.05 77.67-26.1 80.1-27.15 82.86-27.15L82.86-27.15Q85.64-27.15 88.07-26.16 90.5-25.17 92.3-23.35 94.11-21.53 95.16-18.98 96.21-16.43 96.21-13.31ZM89.5-13.31L89.5-13.31Q89.5-14.92 88.97-16.22 88.45-17.53 87.54-18.47 86.64-19.41 85.43-19.91 84.22-20.41 82.86-20.41L82.86-20.41Q81.49-20.41 80.28-19.91 79.07-19.41 78.18-18.47 77.29-17.53 76.78-16.22 76.26-14.92 76.26-13.31L76.26-13.31Q76.26-11.79 76.78-10.5 77.29-9.2 78.18-8.25 79.07-7.3 80.28-6.75 81.49-6.2 82.86-6.2L82.86-6.2Q84.22-6.2 85.43-6.71 86.64-7.23 87.54-8.15 88.45-9.08 88.97-10.4 89.5-11.72 89.5-13.31ZM125.16-13.31L125.16-13.31Q125.16-10.38 124.11-7.85 123.06-5.32 121.26-3.48 119.45-1.64 117.02-0.57 114.59 0.49 111.81 0.49L111.81 0.49Q109.05 0.49 106.62-0.57 104.19-1.64 102.37-3.48 100.55-5.32 99.5-7.85 98.45-10.38 98.45-13.31L98.45-13.31Q98.45-16.28 99.5-18.82 100.55-21.36 102.37-23.21 104.19-25.05 106.62-26.1 109.05-27.15 111.81-27.15L111.81-27.15Q114.59-27.15 117.02-26.16 119.45-25.17 121.26-23.35 123.06-21.53 124.11-18.98 125.16-16.43 125.16-13.31ZM118.45-13.31L118.45-13.31Q118.45-14.92 117.92-16.22 117.4-17.53 116.5-18.47 115.59-19.41 114.38-19.91 113.18-20.41 111.81-20.41L111.81-20.41Q110.44-20.41 109.23-19.91 108.02-19.41 107.13-18.47 106.24-17.53 105.73-16.22 105.22-14.92 105.22-13.31L105.22-13.31Q105.22-11.79 105.73-10.5 106.24-9.2 107.13-8.25 108.02-7.3 109.23-6.75 110.44-6.2 111.81-6.2L111.81-6.2Q113.18-6.2 114.38-6.71 115.59-7.23 116.5-8.15 117.4-9.08 117.92-10.4 118.45-11.72 118.45-13.31ZM146.82 0L141.76 0Q139.35 0 137.22-0.92 135.1-1.83 133.5-3.43 131.9-5.03 130.98-7.15 130.07-9.28 130.07-11.69L130.07-11.69 130.07-19.46 126.82-19.46 126.82-26.1 130.07-26.1 130.07-36.55 136.71-36.55 136.71-26.1 146.82-26.1 146.82-19.46 136.71-19.46 136.71-11.69Q136.71-10.64 137.1-9.73 137.49-8.81 138.17-8.13 138.86-7.45 139.78-7.04 140.71-6.64 141.76-6.64L141.76-6.64 146.82-6.64 146.82 0ZM157.21-14.94L157.21 0 150.55 0 150.55-36.55 157.21-36.55 157.21-25Q158.41-25.9 159.68-26.28 160.95-26.66 162.27-26.66L162.27-26.66Q164.68-26.66 166.81-25.74 168.93-24.83 170.51-23.23 172.08-21.63 173-19.49 173.91-17.36 173.91-14.94L173.91-14.94 173.91 0 167.2 0 167.2-14.94 167.25-14.94Q167.25-15.97 166.86-16.88 166.47-17.8 165.78-18.48 165.1-19.17 164.2-19.56 163.29-19.95 162.27-19.95L162.27-19.95Q161.22-19.95 160.29-19.56 159.36-19.17 158.68-18.48 158-17.8 157.6-16.88 157.21-15.97 157.21-14.94L157.21-14.94ZM193 0L193 0 177.77 0 177.77-6.64 193-6.64Q193.69-6.64 194.17-7.13 194.66-7.62 194.66-8.3L194.66-8.3Q194.66-9.01 194.17-9.23 193.69-9.45 193-9.45L193-9.45 186.07-9.45Q184.34-9.45 182.82-10.11 181.31-10.77 180.19-11.9 179.06-13.04 178.42-14.55 177.77-16.06 177.77-17.8L177.77-17.8Q177.77-19.53 178.42-21.04 179.06-22.56 180.19-23.68 181.31-24.8 182.82-25.45 184.34-26.1 186.07-26.1L186.07-26.1 199.57-26.1 199.57-19.46 186.07-19.46Q185.39-19.46 184.9-18.97 184.41-18.48 184.41-17.8L184.41-17.8Q184.41-17.09 184.9-16.59 185.39-16.09 186.07-16.09L186.07-16.09 193-16.09Q194.71-16.09 196.23-15.52 197.74-14.94 198.86-13.92 199.99-12.89 200.64-11.45 201.3-10.01 201.3-8.3L201.3-8.3Q201.3-6.57 200.64-5.07 199.99-3.56 198.86-2.43 197.74-1.29 196.23-0.65 194.71 0 193 0ZM212.7-33.25L212.7-33.25Q212.7-32.32 212.35-31.52 211.99-30.71 211.38-30.11 210.77-29.52 209.96-29.16 209.14-28.81 208.21-28.81L208.21-28.81Q207.28-28.81 206.46-29.16 205.65-29.52 205.05-30.11 204.45-30.71 204.1-31.52 203.74-32.32 203.74-33.25L203.74-33.25Q203.74-34.16 204.1-34.97 204.45-35.79 205.05-36.39 205.65-36.99 206.46-37.34 207.28-37.7 208.21-37.7L208.21-37.7Q209.14-37.7 209.96-37.34 210.77-36.99 211.38-36.39 211.99-35.79 212.35-34.97 212.7-34.16 212.7-33.25ZM211.55-26.15L211.55 0 204.84 0 204.84-26.15 211.55-26.15ZM239.48-20.95L239.48-20.95 234.6-16.04Q234.23-17.07 233.6-17.88 232.96-18.7 232.17-19.26 231.38-19.82 230.45-20.12 229.52-20.41 228.54-20.41L228.54-20.41Q227.18-20.41 225.97-19.85 224.76-19.29 223.87-18.27 222.98-17.26 222.47-15.87 221.95-14.48 221.95-12.79L221.95-12.79Q221.95-11.43 222.47-10.23 222.98-9.03 223.87-8.13 224.76-7.23 225.97-6.71 227.18-6.2 228.54-6.2L228.54-6.2Q229.52-6.2 230.42-6.47 231.33-6.74 232.12-7.24 232.91-7.74 233.54-8.46 234.16-9.18 234.55-10.06L234.55-10.06 239.43-5.15Q238.51-3.83 237.3-2.78 236.09-1.73 234.68-1 233.28-0.27 231.73 0.11 230.18 0.49 228.54 0.49L228.54 0.49Q225.79 0.49 223.36-0.55 220.93-1.59 219.11-3.39 217.29-5.2 216.24-7.62 215.19-10.03 215.19-12.79L215.19-12.79Q215.19-15.8 216.24-18.41 217.29-21.02 219.11-22.96 220.93-24.9 223.36-26.03 225.79-27.15 228.54-27.15L228.54-27.15Q230.18-27.15 231.75-26.73 233.33-26.32 234.76-25.52 236.19-24.73 237.39-23.58 238.6-22.44 239.48-20.95ZM249.44-3.34L249.44 0 242.73 0 242.73-36.55 249.44-36.55 249.44-13.5 259.38-26.1 267.04-26.1 258.38-15.21 267.04 0 259.38 0 254.08-9.5 249.44-3.34Z" opacity="1" transform="matrix(1,0,0,1,0,0)" fill="#ef5567" class="undefined-text-0" data-fill-palette-color="primary" id="text-0"></path></svg></g></svg></g></svg></g></svg></g></svg></g></svg></g></svg></g></svg></g><defs></defs></svg><rect width="395.52" height="247.2" fill="none" stroke="none" visibility="hidden"></rect></g></svg></g></svg>